<?xml version="1.0" encoding="UTF-8"?>
<svg version="1.1" xmlns="http://www.w3.org/2000/svg" width="1875" height="480">
<path d="M0 0 C53.8003125 -0.0928125 53.8003125 -0.0928125 108.6875 -0.1875 C125.62904419 -0.22846802 125.62904419 -0.22846802 142.9128418 -0.27026367 C156.78283691 -0.28381348 156.78283691 -0.28381348 163.29109192 -0.28633118 C167.8035481 -0.28910828 172.31589669 -0.30027898 176.82832336 -0.31672668 C182.60848837 -0.33751174 188.3885 -0.34343554 194.16869891 -0.33921683 C196.27484456 -0.34009721 198.38099633 -0.34592185 200.48710954 -0.35764539 C234.65126359 -0.53877405 269.95363681 6.11794044 295.62890625 30.49609375 C316.59883147 52.58178964 326.72327209 81.03824447 326.18359375 111.35546875 C325.10911427 132.68502956 318.21936375 152.85258693 304 169 C303.34644531 169.80824219 302.69289063 170.61648437 302.01953125 171.44921875 C291.38147919 184.16298829 276.59696831 193.49652189 261 199 C260.01 199 259.02 199 258 199 C258 199.66 258 200.32 258 201 C259.92779297 201.36931641 259.92779297 201.36931641 261.89453125 201.74609375 C267.13017952 202.91559658 271.82293077 204.83151775 276.6875 207.0625 C277.55745605 207.45953125 278.42741211 207.8565625 279.32373047 208.265625 C291.32995056 213.87811793 301.44459292 220.75449801 311 230 C311.93392578 230.80630859 311.93392578 230.80630859 312.88671875 231.62890625 C327.41351659 244.65405757 333.30989079 267.37726686 335 286 C336.02731249 304.9913446 333.32070844 322.13596385 327 340 C326.77441406 340.64743164 326.54882812 341.29486328 326.31640625 341.96191406 C321.48324882 355.60807466 314.15783172 366.66642724 304 377 C303.33742188 377.67546875 302.67484375 378.3509375 301.9921875 379.046875 C272.21203195 407.35500765 228.69864265 409.18779331 189.92797852 409.11352539 C187.8135551 409.11321844 185.69913158 409.1133536 183.58470821 409.11389065 C177.96461295 409.11411476 172.34453934 409.10835378 166.72444916 409.10128021 C161.4347477 409.0955503 156.14505129 409.0953152 150.85534668 409.09460449 C135.42439496 409.08937438 119.9934472 409.07541312 104.5625 409.0625 C70.056875 409.041875 35.55125 409.02125 0 409 C0 274.03 0 139.06 0 0 Z M114 81 C114 107.07 114 133.14 114 160 C123.24 160.04125 132.48 160.0825 142 160.125 C144.88234375 160.14320801 147.7646875 160.16141602 150.734375 160.18017578 C178.63739477 161.39069108 178.63739477 161.39069108 203 150 C204.76545148 147.50087757 206.23058 144.87548017 207.6875 142.1875 C208.27241211 141.15786133 208.27241211 141.15786133 208.86914062 140.10742188 C214.19708745 130.48068719 215.89323219 120.37853438 213.125 109.58984375 C211.92461793 106.27694718 210.55647629 103.16059981 209 100 C208.5153125 98.99453125 208.030625 97.9890625 207.53125 96.953125 C203.34514238 89.36067491 198.17948545 85.73284322 190 83 C181.59239945 80.69871996 173.22891771 80.73861726 164.5859375 80.8046875 C163.29856689 80.80670166 162.01119629 80.80871582 160.68481445 80.81079102 C155.91483962 80.82118802 151.14491591 80.84911016 146.375 80.875 C130.349375 80.936875 130.349375 80.936875 114 81 Z M114 240 C114 271.02 114 302.04 114 334 C130.70625 334.0928125 130.70625 334.0928125 147.75 334.1875 C151.24303711 334.21481201 154.73607422 334.24212402 158.33496094 334.27026367 C161.51613941 334.28030817 161.51613941 334.28030817 164.69732666 334.28633118 C166.09432864 334.29088321 167.49132021 334.30131812 168.88824463 334.31672668 C184.00490222 334.47486803 198.42337612 332.60389333 209.75 321.75 C219.98754941 310.80703641 223.94955772 299.9981723 224 285 C223.49941118 272.28233803 220.17635471 260.52895166 210.8125 251.4375 C192.37981016 236.93918262 166.43170511 239.62084292 144.4375 239.8125 C129.3709375 239.9053125 129.3709375 239.9053125 114 240 Z " fill="#282867" transform="translate(0,0)"/>
<path d="M0 0 C35.64 0 71.28 0 108 0 C108.03738281 12.74753906 108.07476563 25.49507812 108.11328125 38.62890625 C108.14356703 46.71810971 108.17459825 54.80729902 108.20898438 62.89648438 C108.26339193 75.72809546 108.31480835 88.55966726 108.34643555 101.39135742 C108.36948749 110.73822493 108.4029653 120.08498858 108.44870156 129.4317736 C108.47253709 134.37585745 108.491329 139.31983906 108.49761391 144.26397896 C108.50370881 148.92861425 108.52386553 153.59298828 108.55427551 158.2575264 C108.56298574 159.95890544 108.56679309 161.66031873 108.56500816 163.36171913 C108.55541685 176.73662728 109.1769814 190.34294312 115.6875 202.375 C116.03635254 203.03999512 116.38520508 203.70499023 116.74462891 204.39013672 C122.79123648 215.51404836 131.01713439 222.97470479 143.1875 226.875 C157.50460103 230.24254348 171.4550187 227.83911808 184.25 220.8125 C204.43191067 208.19880583 215.06271865 188.95858581 220.64453125 166.39453125 C223.11172575 155.2300324 223.15506168 143.8007923 223.20532227 132.41894531 C223.21492743 130.9984714 223.22493893 129.57800019 223.23532104 128.15753174 C223.26209092 124.34019974 223.28324952 120.52285573 223.30332303 116.70548344 C223.32535719 112.70164427 223.35265969 108.69784091 223.37937927 104.69403076 C223.42907263 97.12959949 223.47409699 89.56514808 223.51740164 82.00067782 C223.57626312 71.76654169 223.64242283 61.53245282 223.70815182 51.29835892 C223.81136061 35.19893791 223.90489249 19.09947563 224 3 C259.64 3 295.28 3 332 3 C332 105.63 332 208.26 332 314 C298.34 314 264.68 314 230 314 C229.67 293.87 229.34 273.74 229 253 C225.7 259.27 222.4 265.54 219 272 C216.04961545 275.97482362 213.34275357 279.44363351 210 283 C208.86498047 284.25296875 208.86498047 284.25296875 207.70703125 285.53125 C186.98656888 307.43477303 157.25778769 318.28934975 127.515625 319.3203125 C95.49332759 320.08907771 61.97459084 314.73046873 37 293 C36.36449219 292.51789063 35.72898437 292.03578125 35.07421875 291.5390625 C27.97439052 285.9331861 23.03770756 278.41553687 18 271 C17.32453125 270.00742187 16.6490625 269.01484375 15.953125 267.9921875 C1.12239142 244.43363284 -0.33252457 214.80609343 -0.22705078 187.77099609 C-0.2264851 185.709254 -0.22680629 183.64751151 -0.22793579 181.58576965 C-0.22850417 176.04771973 -0.21683425 170.50975835 -0.20278788 164.9717288 C-0.19019369 159.16219768 -0.18910322 153.35266401 -0.18673706 147.54312134 C-0.18054763 136.56829318 -0.1641715 125.59350538 -0.14403808 114.6186949 C-0.11739518 99.76980076 -0.10668592 84.9208954 -0.09503365 70.07198334 C-0.07628881 46.71462539 -0.0364263 23.35735257 0 0 Z " fill="#282867" transform="translate(1248,107)"/>
<path d="M0 0 C7.87759254 7.71516795 14.37914888 15.77489351 19.83398438 25.35351562 C20.19959473 25.99256836 20.56520508 26.63162109 20.94189453 27.29003906 C31.56343501 46.24932367 35.17512511 66.12001254 35.0769043 87.70166016 C35.07798133 89.06207368 35.07992621 90.42248674 35.08265686 91.78289795 C35.08744034 95.42744124 35.07993247 99.07185913 35.06970382 102.71638727 C35.06081465 106.55928524 35.06268284 110.40218052 35.06306458 114.24508667 C35.06213275 120.69189509 35.05351375 127.13865598 35.03979492 133.58544922 C35.02406128 141.00578603 35.01879761 148.42607098 35.01953048 155.84642327 C35.02020936 163.79807998 35.01325152 171.7497171 35.00408387 179.70136786 C35.00196748 181.97093755 35.00124476 184.24050402 35.00084496 186.51007462 C34.99982977 190.09384002 34.99363894 193.67756305 34.98367882 197.26131439 C34.9794337 199.18023748 34.97991934 201.09916927 34.98062134 203.01809692 C34.95570642 209.87731684 34.66519934 216.64972652 34.06250477 223.48324394 C33.27722534 233.34654447 34.25342956 243.04574302 35.27148438 252.85351562 C35.47622406 254.87754151 35.67942866 256.90171784 35.88258362 258.92590332 C36.0677049 260.76204099 36.25626366 262.59783118 36.44506836 264.43359375 C36.93820847 269.40400031 37.38177551 274.37921812 37.83398438 279.35351562 C5.16398437 279.35351562 -27.50601563 279.35351562 -61.16601562 279.35351562 C-61.16601562 263.60351562 -61.16601562 263.60351562 -60.72851562 257.42382812 C-60.63828125 256.11542969 -60.54804687 254.80703125 -60.45507812 253.45898438 C-60.3596875 252.14542969 -60.26429688 250.831875 -60.16601562 249.47851562 C-60.06921787 248.09703622 -59.97286179 246.71552579 -59.87695312 245.33398438 C-59.64428514 242.0068322 -59.40724594 238.68005605 -59.16601562 235.35351562 C-60.33620239 236.55512329 -60.33620239 236.55512329 -61.5300293 237.78100586 C-64.48088191 240.80531822 -67.44582453 243.81550246 -70.41479492 246.82202148 C-71.68776804 248.11487228 -72.95710225 249.41131817 -74.22241211 250.71166992 C-95.10250374 272.15452264 -119.95846951 284.80910987 -150.45507812 285.55664062 C-185.97273777 285.94037902 -222.2714578 280.17193208 -250.16601562 256.35351562 C-251.00261719 255.71027344 -251.83921875 255.06703125 -252.70117188 254.40429688 C-265.52174076 243.73742102 -273.62000669 226.34548372 -275.88476562 210.05664062 C-277.92382028 183.2090876 -275.44453884 152.72637967 -257.55664062 131.06054688 C-254.89356324 128.01438179 -252.06111828 125.17939642 -249.16601562 122.35351562 C-248.36292969 121.54140625 -247.55984375 120.72929687 -246.73242188 119.89257812 C-209.89362335 84.44506427 -146.65208251 84.72425413 -98.98297119 85.14752197 C-95.03231971 85.17905558 -91.08160225 85.19208687 -87.13085938 85.20703125 C-79.47574354 85.23853691 -71.8209343 85.28923879 -64.16601562 85.35351562 C-64.47336446 83.78946839 -64.78226713 82.22572646 -65.09179688 80.66210938 C-65.26364502 79.79126709 -65.43549316 78.9204248 -65.61254883 78.02319336 C-67.94023537 66.79546848 -72.10833629 56.21526975 -82.02148438 49.61914062 C-82.72917969 49.20148438 -83.436875 48.78382813 -84.16601562 48.35351562 C-84.90464844 47.91523438 -85.64328125 47.47695312 -86.40429688 47.02539062 C-120.57665966 28.45710185 -169.50521415 37.50964294 -204.79101562 47.72851562 C-213.67171972 50.38192808 -222.30670287 53.54658869 -230.87695312 57.06835938 C-234.16601562 58.35351562 -234.16601562 58.35351562 -236.16601562 58.35351562 C-236.16601562 34.59351563 -236.16601562 10.83351562 -236.16601562 -13.64648438 C-215.1364867 -22.99294168 -215.1364867 -22.99294168 -208.41601562 -24.89648438 C-207.60076416 -25.13334961 -206.7855127 -25.37021484 -205.94555664 -25.61425781 C-190.03952114 -30.06438524 -173.60992611 -32.37704492 -157.16601562 -33.64648438 C-156.41803711 -33.70433105 -155.67005859 -33.76217773 -154.89941406 -33.82177734 C-102.3584317 -37.62631345 -40.56387847 -38.43892319 0 0 Z M-162.33398438 154.98242188 C-168.99593209 163.35235856 -174.9189775 171.64439849 -174.52539062 182.82226562 C-173.47126268 190.24699288 -171.36459201 199.88901869 -165.33398438 204.86523438 C-164.68042969 205.25324219 -164.026875 205.64125 -163.35351562 206.04101562 C-162.70769531 206.43675781 -162.061875 206.8325 -161.39648438 207.24023438 C-156.30338962 209.78232195 -150.91335547 210.93371351 -145.35351562 211.97851562 C-144.69287109 212.11257813 -144.03222656 212.24664062 -143.3515625 212.38476562 C-127.38274831 215.41466648 -107.62062802 211.45455544 -94.16601562 202.35351562 C-80.21432494 192.00618045 -73.47932372 177.32774089 -69.85351562 160.72851562 C-69.68182861 159.95314453 -69.5101416 159.17777344 -69.33325195 158.37890625 C-68.49322869 154.22480059 -68.08290783 150.30222898 -68.12231445 146.05908203 C-68.12862381 145.17346588 -68.13493317 144.28784973 -68.14143372 143.37539673 C-68.15360176 142.37456558 -68.15360176 142.37456558 -68.16601562 141.35351562 C-76.36457344 141.26000805 -84.56290106 141.18934807 -92.76186371 141.14626694 C-96.57076623 141.1255692 -100.37929867 141.09758719 -104.18798828 141.05175781 C-107.87741116 141.00765158 -111.56648271 140.98424544 -115.25614929 140.97400665 C-116.6496889 140.96672933 -118.04321371 140.95252686 -119.43659973 140.9305954 C-134.70443505 140.70028495 -151.94175422 142.67248547 -162.33398438 154.98242188 Z " fill="#282867" transform="translate(659.166015625,135.646484375)"/>
<path d="M0 0 C2 2 2 2 2.046875 3.8996582 C1.89992188 5.08821411 1.89992188 5.08821411 1.75 6.30078125 C1.63889893 7.23744629 1.52779785 8.17411133 1.41333008 9.13916016 C1.27693115 10.1863623 1.14053223 11.23356445 1 12.3125 C0.798302 13.95677979 0.798302 13.95677979 0.5925293 15.63427734 C0.07871842 19.75852469 -0.45816787 23.87935784 -1 28 C-1.17713531 29.35088715 -1.17713531 29.35088715 -1.35784912 30.72906494 C-3.20749557 44.82356596 -5.09368477 58.91306114 -7 73 C-10.94226269 71.4516705 -14.69908274 69.68299644 -18.5 67.8125 C-47.82716548 53.90310729 -87.93949745 43.21506049 -120 53 C-128.14233305 56.14018283 -133.09011857 60.16612204 -137 68 C-138.77579022 72.1166046 -139.55922543 75.52619658 -139 80 C-134.25823516 89.89585707 -122.89086539 93.87194557 -113.13613892 97.33056641 C-107.49827491 99.09738762 -101.63132715 99.84942559 -95.79602051 100.67306519 C-91.84098685 101.2362301 -87.89730378 101.86975102 -83.953125 102.50390625 C-82.78979645 102.69020348 -82.78979645 102.69020348 -81.60296631 102.88026428 C-65.68091637 105.47879421 -50.3914221 109.64298159 -36 117 C-35.25878906 117.37672852 -34.51757812 117.75345703 -33.75390625 118.14160156 C-24.00090237 123.16821213 -15.09835055 128.50967258 -7 136 C-6.15179687 136.75667969 -5.30359375 137.51335937 -4.4296875 138.29296875 C5.1976975 147.31680209 12.37788179 158.64602963 17 171 C17.5878125 172.48306641 17.5878125 172.48306641 18.1875 173.99609375 C23.81261912 190.89098277 23.7419636 213.45844986 17 230 C16.72623535 230.6791748 16.4524707 231.35834961 16.17041016 232.05810547 C12.03126368 242.11095933 7.00293869 250.64843884 0 259 C-0.97066406 260.19689453 -0.97066406 260.19689453 -1.9609375 261.41796875 C-26.87144781 290.95471669 -67.58153286 303.16483497 -104.72460938 306.48217773 C-142.17846039 309.3117956 -179.50955371 304.20541027 -215.75 294.875 C-216.4104834 294.70505524 -217.0709668 294.53511047 -217.75146484 294.36001587 C-224.6511016 292.57013611 -231.38880133 290.67437936 -238 288 C-238.1572616 278.87002374 -237.67516491 269.84996306 -236.9765625 260.75 C-236.86910115 259.31942868 -236.76179414 257.88884576 -236.65463257 256.45825195 C-236.43081892 253.48640141 -236.20338604 250.514854 -235.97363281 247.54345703 C-235.68010912 243.74014811 -235.39858849 239.93605196 -235.12001991 236.13162231 C-234.90274024 233.18865115 -234.67779558 230.24630289 -234.45066452 227.30407715 C-234.34352959 225.90088097 -234.23909024 224.49747621 -234.13743973 223.09387207 C-233.99498027 221.13880423 -233.84076764 219.18460355 -233.68603516 217.23046875 C-233.60165192 216.12082764 -233.51726868 215.01118652 -233.43032837 213.86791992 C-233.02207593 211.14712484 -232.39461485 209.34678422 -231 207 C-230.04222656 207.56847656 -229.08445312 208.13695312 -228.09765625 208.72265625 C-211.31648851 218.52927786 -195.00799055 224.21594948 -176.00390625 228.33447266 C-173.30172118 228.93315248 -170.62094522 229.58495387 -167.9375 230.26171875 C-149.57244946 234.69731357 -127.80762461 236.1675689 -110 229 C-108.906875 228.56429687 -107.81375 228.12859375 -106.6875 227.6796875 C-98.93537136 224.2026298 -93.8719796 219.86987845 -89.5625 212.5625 C-88.30686247 206.84237349 -88.040599 202.00142211 -91.0625 196.8125 C-99.60866439 184.85733929 -113.46328982 180.67859716 -127.25 177.5 C-128.4551123 177.20939697 -129.66022461 176.91879395 -130.90185547 176.61938477 C-135.73994795 175.45655832 -140.58581267 174.32850184 -145.43261719 173.20263672 C-174.83067774 166.37142613 -208.12400083 157.86932835 -226.5625 131.46875 C-228.46069126 128.20881284 -230.11681009 124.86367297 -231.6875 121.4375 C-231.97326904 120.83156006 -232.25903809 120.22562012 -232.5534668 119.60131836 C-237.69088929 107.77756985 -238.555267 95.03594637 -238.4375 82.3125 C-238.43479095 81.62055542 -238.43208191 80.92861084 -238.42929077 80.21569824 C-238.29264854 57.08825282 -233.93622428 35.83086362 -217.25 18.875 C-193.40349848 -4.55909645 -157.59204343 -15.21775239 -125 -18 C-123.91976563 -18.10957031 -122.83953125 -18.21914062 -121.7265625 -18.33203125 C-81.6271361 -21.90383289 -36.6138801 -17.66938493 0 0 Z " fill="#282867" transform="translate(1854,124)"/>
<path d="M0 0 C-0.58626518 14.55056169 -1.54286498 29.04848221 -2.72949219 43.56201172 C-3.00366723 46.91991361 -3.27170859 50.27826753 -3.5390625 53.63671875 C-3.71318682 55.79690363 -3.88765304 57.95706099 -4.0625 60.1171875 C-4.14169678 61.10886932 -4.22089355 62.10055115 -4.30249023 63.12228394 C-4.71346938 68.11489349 -5.22520215 73.0503788 -6 78 C-9.72272357 76.89324434 -13.09549552 75.46694011 -16.5625 73.75 C-44.51449205 60.88139164 -79.29879642 58.22737958 -108.375 68.75 C-115.12688865 71.35659647 -121.15505589 74.7071587 -127 79 C-127.65355469 79.47050781 -128.30710937 79.94101563 -128.98046875 80.42578125 C-142.61610137 91.11154191 -148.50901971 109.86007895 -151.625 126.296875 C-153.733788 147.12115655 -152.8591951 171.42341761 -139.6875 188.8125 C-138.47535506 190.22314029 -137.24547646 191.61869997 -136 193 C-134.99839844 194.21236328 -134.99839844 194.21236328 -133.9765625 195.44921875 C-118.93407339 213.1798061 -97.96642432 222.94650038 -75 225 C-50.77908176 226.5108616 -27.25669909 221.86951006 -4.00170898 215.48730469 C-2 215 -2 215 0 215 C0.70693368 222.84613836 1.22572103 230.67543736 1.53515625 238.546875 C1.57813339 239.6017511 1.62111053 240.6566272 1.66539001 241.74346924 C1.75486359 243.95848493 1.84302936 246.17355381 1.92993164 248.38867188 C2.06163442 251.72805279 2.19949849 255.06714041 2.33789062 258.40625 C2.80423404 269.94478974 3.1457073 281.45134722 3 293 C-57.79435548 310.809071 -132.05068593 313.07555765 -189.2734375 282.6640625 C-201.94230115 275.66244164 -212.6808882 267.09043343 -223 257 C-223.72445312 256.33742188 -224.44890625 255.67484375 -225.1953125 254.9921875 C-253.84422922 228.19907105 -263.45124851 188.999658 -264.87109375 151.203125 C-264.91427634 149.80208991 -264.95725278 148.40104844 -265 147 C-265.05285156 145.73671875 -265.10570312 144.4734375 -265.16015625 143.171875 C-266.09104843 103.8315621 -252.72867402 66.79665654 -226 38 C-225.52336914 37.47954102 -225.04673828 36.95908203 -224.55566406 36.42285156 C-212.34863878 23.21044328 -197.95861908 13.17936938 -182 5 C-181.33419922 4.65485352 -180.66839844 4.30970703 -179.98242188 3.95410156 C-123.54299235 -24.97178508 -57.99981895 -22.42699211 0 0 Z " fill="#282867" transform="translate(988,119)"/>
<path d="M0 0 C1.21002686 -0.00073013 2.42005371 -0.00146027 3.66674805 -0.00221252 C6.98106677 0.00067337 10.29382641 0.0257372 13.60786915 0.06065726 C17.07249669 0.09192401 20.53714523 0.09485171 24.00189209 0.1007843 C30.56099618 0.11632197 37.11968335 0.15734884 43.67860389 0.20753175 C51.14645205 0.26342806 58.61432017 0.29091234 66.08232546 0.31600893 C81.44282037 0.36826521 96.80289938 0.45620537 112.16308594 0.56762695 C110.78823187 3.37810627 109.32948343 5.85819943 107.46777344 8.3762207 C106.92507813 9.11227539 106.38238281 9.84833008 105.82324219 10.60668945 C105.23414063 11.39817383 104.64503906 12.1896582 104.03808594 13.00512695 C103.420625 13.83915039 102.80316406 14.67317383 102.16699219 15.5324707 C96.88444697 22.64643941 91.51250425 29.69104834 86.12744141 36.72753906 C81.74443345 42.4636727 77.42871553 48.24377651 73.16308594 54.06762695 C67.57646173 61.69502712 61.87032255 69.2240726 56.12402344 76.73168945 C51.74244268 82.46665423 47.42765636 88.24522258 43.16308594 94.06762695 C37.58572668 101.68237772 31.88940476 109.19920386 26.15258789 116.69433594 C19.84216265 124.9540105 13.66994157 133.31215922 7.53491211 141.70263672 C6.08996192 143.66703865 4.62904391 145.61886683 3.16308594 147.56762695 C3.95142822 147.81295166 4.73977051 148.05827637 5.55200195 148.31103516 C32.69281067 156.83942829 57.36326603 166.74190343 79.16308594 185.56762695 C80.13117188 186.40036133 81.09925781 187.2330957 82.09667969 188.09106445 C101.327127 204.97733028 115.06024405 226.5550492 128.03027344 248.3840332 C156.40915234 296.14315713 187.40080973 332.90902067 242.78027344 347.73413086 C258.05309718 351.49722412 273.64918458 354.03867563 289.16308594 356.56762695 C289.16308594 357.22762695 289.16308594 357.88762695 289.16308594 358.56762695 C273.67707626 364.6796219 257.24017447 370.57431718 240.38671875 370.74462891 C239.2698468 370.75746414 238.15297485 370.77029938 237.0022583 370.78352356 C235.20241486 370.79460396 235.20241486 370.79460396 233.36621094 370.8059082 C232.10460144 370.81397995 230.84299194 370.8220517 229.54315186 370.83036804 C226.86336633 370.84419402 224.18370295 370.85520885 221.50390625 370.86279297 C218.81206951 370.87152438 216.12150111 370.89445503 213.4296875 370.92431641 C195.26683818 371.12545165 178.0061823 370.02013971 160.16308594 366.56762695 C159.40539917 366.42495392 158.6477124 366.28228088 157.86706543 366.13528442 C153.68933034 365.33969954 149.54919622 364.43068592 145.41308594 363.44262695 C144.18195068 363.1504126 142.95081543 362.85819824 141.68237305 362.55712891 C102.87410956 353.0192755 62.95194392 338.19367369 34.16308594 309.56762695 C33.67098633 309.07955566 33.17888672 308.59148437 32.671875 308.08862305 C15.53711647 290.85910495 4.07147189 269.84589782 -7.24853516 248.56610107 C-21.22021757 221.88583802 -21.22021757 221.88583802 -38.83691406 197.56762695 C-39.26681641 197.06086426 -39.69671875 196.55410156 -40.13964844 196.03198242 C-62.53299888 169.88733714 -92.17489988 157.75721753 -124.83691406 149.56762695 C-123.84691406 149.23762695 -122.85691406 148.90762695 -121.83691406 148.56762695 C-120.76708259 146.71342322 -120.76708259 146.71342322 -119.83691406 144.56762695 C-118.96704606 143.27835228 -118.06622788 142.00961935 -117.14160156 140.7590332 C-116.59890625 140.02297852 -116.05621094 139.28692383 -115.49707031 138.52856445 C-114.90796875 137.73708008 -114.31886719 136.9455957 -113.71191406 136.13012695 C-113.09445312 135.29610352 -112.47699219 134.46208008 -111.84082031 133.6027832 C-106.5582751 126.4888145 -101.18633237 119.44420557 -95.80126953 112.40771484 C-91.41826157 106.67158121 -87.10254365 100.8914774 -82.83691406 95.06762695 C-77.25028986 87.44022679 -71.54415068 79.91118131 -65.79785156 72.40356445 C-61.41627081 66.66859968 -57.10148449 60.89003132 -52.83691406 55.06762695 C-47.25895252 47.45205389 -41.56258726 39.93395992 -35.82421875 32.4387207 C-30.58542406 25.58307713 -25.44366789 18.6604827 -20.35253906 11.69458008 C-19.81628906 10.96174805 -19.28003906 10.22891602 -18.72753906 9.47387695 C-18.26379883 8.83772461 -17.80005859 8.20157227 -17.32226562 7.54614258 C-16.83209961 6.89323242 -16.34193359 6.24032227 -15.83691406 5.56762695 C-15.39041504 4.71352737 -14.94391602 3.8594278 -14.48388672 2.97944641 C-10.2047485 -0.91953939 -5.58494789 -0.08767463 0 0 Z " fill="#EC2029" transform="translate(1087.8369140625,109.432373046875)"/>
<path d="M0 0 C1.21002686 -0.00073013 2.42005371 -0.00146027 3.66674805 -0.00221252 C6.98106677 0.00067337 10.29382641 0.0257372 13.60786915 0.06065726 C17.07249669 0.09192401 20.53714523 0.09485171 24.00189209 0.1007843 C30.56099618 0.11632197 37.11968335 0.15734884 43.67860389 0.20753175 C51.14645205 0.26342806 58.61432017 0.29091234 66.08232546 0.31600893 C81.44282037 0.36826521 96.80289938 0.45620537 112.16308594 0.56762695 C110.78823187 3.37810627 109.32948343 5.85819943 107.46777344 8.3762207 C106.92507813 9.11227539 106.38238281 9.84833008 105.82324219 10.60668945 C105.23414063 11.39817383 104.64503906 12.1896582 104.03808594 13.00512695 C103.420625 13.83915039 102.80316406 14.67317383 102.16699219 15.5324707 C96.88444697 22.64643941 91.51250425 29.69104834 86.12744141 36.72753906 C81.74443345 42.4636727 77.42871553 48.24377651 73.16308594 54.06762695 C67.57646173 61.69502712 61.87032255 69.2240726 56.12402344 76.73168945 C51.74244268 82.46665423 47.42765636 88.24522258 43.16308594 94.06762695 C37.5851244 101.68320001 31.88875913 109.20129399 26.15039062 116.6965332 C20.91159593 123.55217677 15.76983977 130.47477121 10.67871094 137.44067383 C10.14246094 138.17350586 9.60621094 138.90633789 9.05371094 139.66137695 C8.5899707 140.2975293 8.12623047 140.93368164 7.6484375 141.58911133 C7.15827148 142.24202148 6.66810547 142.89493164 6.16308594 143.56762695 C5.4933374 144.84877632 5.4933374 144.84877632 4.81005859 146.1558075 C0.53092038 150.0547933 -4.08888024 149.22292854 -9.67382812 149.13525391 C-10.88385498 149.13598404 -12.09388184 149.13671417 -13.34057617 149.13746643 C-16.6548949 149.13458054 -19.96765454 149.1095167 -23.28169727 149.07459664 C-26.74632481 149.0433299 -30.21097336 149.04040219 -33.67572021 149.0344696 C-40.23482431 149.01893194 -46.79351148 148.97790506 -53.35243201 148.92772216 C-60.82028017 148.87182585 -68.28814829 148.84434156 -75.75615358 148.81924498 C-91.1166485 148.76698869 -106.47672751 148.67904854 -121.83691406 148.56762695 C-120.46205999 145.75714763 -119.00331155 143.27705448 -117.14160156 140.7590332 C-116.59890625 140.02297852 -116.05621094 139.28692383 -115.49707031 138.52856445 C-114.90796875 137.73708008 -114.31886719 136.9455957 -113.71191406 136.13012695 C-113.09445312 135.29610352 -112.47699219 134.46208008 -111.84082031 133.6027832 C-106.5582751 126.4888145 -101.18633237 119.44420557 -95.80126953 112.40771484 C-91.41826157 106.67158121 -87.10254365 100.8914774 -82.83691406 95.06762695 C-77.25028986 87.44022679 -71.54415068 79.91118131 -65.79785156 72.40356445 C-61.41627081 66.66859968 -57.10148449 60.89003132 -52.83691406 55.06762695 C-47.25895252 47.45205389 -41.56258726 39.93395992 -35.82421875 32.4387207 C-30.58542406 25.58307713 -25.44366789 18.6604827 -20.35253906 11.69458008 C-19.81628906 10.96174805 -19.28003906 10.22891602 -18.72753906 9.47387695 C-18.26379883 8.83772461 -17.80005859 8.20157227 -17.32226562 7.54614258 C-16.83209961 6.89323242 -16.34193359 6.24032227 -15.83691406 5.56762695 C-15.39041504 4.71352737 -14.94391602 3.8594278 -14.48388672 2.97944641 C-10.2047485 -0.91953939 -5.58494789 -0.08767463 0 0 Z " fill="#282867" transform="translate(1087.8369140625,109.432373046875)"/>
</svg>
